<svg id="aaafdec0-95c8-49a3-a8f8-64216c6da511" xmlns="http://www.w3.org/2000/svg" xmlns:xlink="http://www.w3.org/1999/xlink" viewBox="0 0 378.52 515.42"><defs><style>.cls-1{fill:none;stroke:#3f3d56;stroke-miterlimit:10;}.cls-2,.cls-3{fill:#f2da91;}.cls-10,.cls-13,.cls-3,.cls-5{opacity:0.1;}.cls-13,.cls-3,.cls-5{isolation:isolate;}.cls-4{fill:#ffb9b9;}.cls-6{fill:#2f2e41;}.cls-7{fill:#07691c;}.cls-8{fill:#f2f2f2;}.cls-9{fill:#3f3d56;}.cls-11{fill:url(#linear-gradient);}.cls-12{fill:url(#linear-gradient-2);}.cls-13{fill:url(#linear-gradient-3);}.cls-14{fill:url(#linear-gradient-4);}.cls-15{fill:url(#linear-gradient-5);}.cls-16{fill:url(#linear-gradient-6);}.cls-17{fill:url(#linear-gradient-7);}.cls-18{fill:url(#linear-gradient-8);}.cls-19{fill:url(#linear-gradient-9);}.cls-20{fill:url(#linear-gradient-10);}.cls-21{fill:url(#linear-gradient-11);}.cls-22{fill:url(#linear-gradient-12);}.cls-23{fill:url(#linear-gradient-13);}.cls-24{fill:url(#linear-gradient-14);}.cls-25{fill:url(#linear-gradient-15);}.cls-26{fill:url(#linear-gradient-16);}.cls-27{fill:url(#linear-gradient-17);}.cls-28{fill:#ffe8dc;}.cls-29{fill:#fff;}.cls-30{fill:#e6e6e6;}</style><linearGradient id="linear-gradient" x1="276.27" y1="333.98" x2="276.27" y2="349.08" gradientTransform="matrix(1, 0, 0, -1, -21.14, 383.12)" gradientUnits="userSpaceOnUse"><stop offset="0" stop-color="gray" stop-opacity="0.25"/><stop offset="0.54" stop-color="gray" stop-opacity="0.12"/><stop offset="1" stop-color="gray" stop-opacity="0.1"/></linearGradient><linearGradient id="linear-gradient-2" x1="244.92" y1="311.13" x2="244.92" y2="322.86" xlink:href="#linear-gradient"/><linearGradient id="linear-gradient-3" x1="235.76" y1="307.64" x2="235.76" y2="319.01" xlink:href="#linear-gradient"/><linearGradient id="linear-gradient-4" x1="256.21" y1="290.09" x2="256.21" y2="328.74" xlink:href="#linear-gradient"/><linearGradient id="linear-gradient-5" x1="305.39" y1="288.5" x2="305.39" y2="329.79" xlink:href="#linear-gradient"/><linearGradient id="linear-gradient-6" x1="283.29" y1="286.63" x2="283.29" y2="383.12" xlink:href="#linear-gradient"/><linearGradient id="linear-gradient-7" x1="314.29" y1="357.13" x2="314.29" y2="363.35" xlink:href="#linear-gradient"/><linearGradient id="linear-gradient-8" x1="265.16" y1="346.7" x2="265.16" y2="361.21" xlink:href="#linear-gradient"/><linearGradient id="linear-gradient-9" x1="242.24" y1="334.67" x2="242.24" y2="355.81" xlink:href="#linear-gradient"/><linearGradient id="linear-gradient-10" x1="262.93" y1="309.97" x2="262.93" y2="316.1" xlink:href="#linear-gradient"/><linearGradient id="linear-gradient-11" x1="261.37" y1="328.54" x2="261.37" y2="339.79" xlink:href="#linear-gradient"/><linearGradient id="linear-gradient-12" x1="306.46" y1="286.65" x2="306.46" y2="302.86" xlink:href="#linear-gradient"/><linearGradient id="linear-gradient-13" x1="324.02" y1="297.79" x2="324.02" y2="330.91" xlink:href="#linear-gradient"/><linearGradient id="linear-gradient-14" x1="287.26" y1="313.92" x2="287.26" y2="325.92" xlink:href="#linear-gradient"/><linearGradient id="linear-gradient-15" x1="256.21" y1="290.98" x2="256.21" y2="320.63" xlink:href="#linear-gradient"/><linearGradient id="linear-gradient-16" x1="280.69" y1="343.13" x2="280.69" y2="369.72" xlink:href="#linear-gradient"/><linearGradient id="linear-gradient-17" x1="273.19" y1="292.1" x2="273.19" y2="301.2" xlink:href="#linear-gradient"/></defs><path class="cls-1" d="M170.08,219.53" transform="translate(0 0)"/><rect class="cls-2" x="235.07" y="39.84" width="51.08" height="34.73"/><rect class="cls-3" x="233.79" y="40.6" width="51.08" height="34.73"/><path class="cls-4" d="M246.28,67.89c-.6,5.36-4.69,9.67-6.2,14.84-2.28,7.78,1.66,16.14,7,22.2a49.14,49.14,0,0,0,34.23,16.25,14.65,14.65,0,0,0,5.66-.61,12.28,12.28,0,0,0,4.31-2.95c4.05-4.07,6.23-9.72,7.1-15.4s.53-11.47.19-17.21a9.53,9.53,0,0,0-.64-3.47,8.75,8.75,0,0,0-2.23-2.75,52.1,52.1,0,0,0-9.59-7,11,11,0,0,1-4-3.07,10.09,10.09,0,0,1-1.24-3.68l-1.06-5.4a10.58,10.58,0,0,0-1.56-4.38c-1.87-2.52-5.45-2.87-8.59-3l-11.5-.45c-3.58-.14-8.3-1.17-11.79-.47-3.26.66-2.18,3.67-1.59,6.4A46.73,46.73,0,0,1,246.28,67.89Z" transform="translate(0 0)"/><path class="cls-5" d="M246.28,67.89c-.6,5.36-4.69,9.67-6.2,14.84-2.28,7.78,1.66,16.14,7,22.2a49.14,49.14,0,0,0,34.23,16.25,14.65,14.65,0,0,0,5.66-.61,12.28,12.28,0,0,0,4.31-2.95c4.05-4.07,6.23-9.72,7.1-15.4s.53-11.47.19-17.21a9.53,9.53,0,0,0-.64-3.47,8.75,8.75,0,0,0-2.23-2.75,52.1,52.1,0,0,0-9.59-7,11,11,0,0,1-4-3.07,10.09,10.09,0,0,1-1.24-3.68l-1.06-5.4a10.58,10.58,0,0,0-1.56-4.38c-1.87-2.52-5.45-2.87-8.59-3l-11.5-.45c-3.58-.14-8.3-1.17-11.79-.47-3.26.66-2.18,3.67-1.59,6.4A46.73,46.73,0,0,1,246.28,67.89Z" transform="translate(0 0)"/><path class="cls-6" d="M319.46,308.9l-4.89,53.61c-1.27,14.06-2.57,28.18-5.08,42.06-.86,4.78-1.87,9.54-3.07,14.26-3.35,13.09-8.19,25.9-9.76,39.32-.05.39-.09.78-.13,1.18a34.66,34.66,0,0,1-1.67,8.73c-.78,2.05-2,3.91-2.83,5.94-1.69,4.05-1.91,8.53-2.12,12.92a55.8,55.8,0,0,0-19.17-6.56c-3.25-.48-6.88-.83-9.09-3.26-2.45-2.68-2.18-6.79-1.77-10.39l3.87-33.58a88.07,88.07,0,0,1,2.44-14.25c.45-1.56,1-3.09,1.53-4.62.75-2.11,1.5-4.22,2.07-6.38a76.41,76.41,0,0,0,1.71-10.63c1.33-11.26,2.93-22.5,4.32-33.75l.08-.59c2.1-17.06,3.7-34.2,3.23-51.38-.06-2.55-.17-5.09-.33-7.64-.23-3.7-.57-5.66,2.49-8,3.38-2.55,7.84-4.34,11.71-6,2.08-.91,25-9.05,25.55-7.26a44.59,44.59,0,0,1,1.68,11.71A128.52,128.52,0,0,1,319.46,308.9Z" transform="translate(0 0)"/><path class="cls-5" d="M309.49,404.57c-.86,4.78-1.87,9.54-3.07,14.26-3.35,13.09-8.19,25.9-9.76,39.32-.05.39-.09.78-.13,1.18-10.23-14.6-18.84-30.31-28.81-45.07.75-2.11,1.5-4.22,2.07-6.38a76.41,76.41,0,0,0,1.71-10.63c1.33-11.26,2.93-22.5,4.33-33.75l.07-.59a34.86,34.86,0,0,0,2.49,6.92c6.7,13.62,22.63,20.5,30.41,33.53C309,403.76,309.27,404.17,309.49,404.57Z" transform="translate(0 0)"/><path class="cls-6" d="M226.53,284.84c.34,10.92,2.09,21.74,3.83,32.53l3.6,22.25c2,12.18,4,24.61,9.78,35.52,4.32,8.16,10.53,15.12,16.15,22.44,13.81,18,24.19,38.39,37.29,56.92,3.81,5.38,9.25,11.2,15.75,10.08,4.27-.74,7.36-4.29,10.72-7,4-3.23,8.71-5.59,11.82-9.63s3.72-10.77-.49-13.65a22.23,22.23,0,0,0-4.82-2c-6.54-2.48-10.76-8.86-13.45-15.31s-4.32-13.38-7.91-19.38c-7.78-13-23.71-19.91-30.41-33.54-3.75-7.62-4.11-16.42-4.4-24.91l-.73-21.67c-.08-2.37-.14-4.83.82-7,2.56-5.76,10.3-6.3,16.57-7A56.55,56.55,0,0,0,311,297c3.61-2,7.14-4.43,9.07-8.05,1.76-3.3,2-7.18,2.21-10.92l2.17-39.25c.19-3.38.36-6.87-.83-10-3-7.95-13-10.55-21.51-10.17-15.79.71-30.37,7.5-45.26,12.09a114.1,114.1,0,0,1-11.22,2.92c-3.34.67-7.38.39-10.57,1.47-5.66,1.91-5.52,14.3-6.32,19.44A163.69,163.69,0,0,0,226.53,284.84Z" transform="translate(0 0)"/><path class="cls-6" d="M310.79,466.23c1.39,1.4,1.84,3.46,2.21,5.4a184.77,184.77,0,0,1,3.12,32.69,5.37,5.37,0,0,0,.59,3,3.72,3.72,0,0,0,1.54,1.23c4,1.92,8.69-.75,12.05-3.69,6.21-5.45,11.47-12.76,11.83-21a48.33,48.33,0,0,1,.22-6.37c.55-3.11,2.36-5.82,4-8.54a72.22,72.22,0,0,0,6.55-14.67c.61-1.93,1-4.35-.49-5.69a5.47,5.47,0,0,0-1.79-.93l-18.18-6.75c-1.58-.59-5.5,9.48-6.12,10.58-1.52,2.7-3,4.22-6.09,4.85s-6.83-.28-9.73,1.27C305.54,460.21,308,463.42,310.79,466.23Z" transform="translate(0 0)"/><path class="cls-6" d="M282.74,472.44a5.65,5.65,0,0,0-1.39-1.76,6.3,6.3,0,0,0-2.79-.94c-3.46-.59-7.56-1-9.95,1.59s-1.85,6.34-3.73,9.05c-.59.86-1.39,1.56-1.91,2.47a9.39,9.39,0,0,0-.83,4.43c-.1,4.19-.2,8.4.09,12.58.25,3.51.84,7.19,3,9.94,3.52,4.41,9.87,5,15.51,5.33l4.56.23a9,9,0,0,0,3.75-.34,6.15,6.15,0,0,0,3.22-3.55c2.38-5.91-1.38-12.27-3.7-18.2C285.93,486.45,286.41,478.88,282.74,472.44Z" transform="translate(0 0)"/><circle class="cls-4" cx="258.69" cy="40.05" r="25.93"/><path class="cls-7" d="M264.77,96.8a12.58,12.58,0,0,0-12.23-8.42,3.81,3.81,0,0,1-2.26-.28,3.14,3.14,0,0,1-.92-1.16A45.63,45.63,0,0,1,245.57,78c-.41-1.37-1-3-2.36-3.35a3.2,3.2,0,0,0-3,1.31A26.85,26.85,0,0,1,238,78.68c-3.26,2.91-9,.25-12.5,2.93-.57.44-1,1-1.63,1.39a7.28,7.28,0,0,1-1.9.82,181.48,181.48,0,0,0-19.63,7.69c2.3,13.86,4.66,28,10.06,41,2.57,6.18,5.48,12.23,7.54,18.59,4.55,14.11,4.75,29.2,4.81,44,0,10.14,0,20.5-3.3,30.1a28.13,28.13,0,0,0-1.85,6.61c-.2,2.29.46,4.81,2.32,6.17a8,8,0,0,0,3.58,1.26c5.68.83,11.42-.68,17-2,15-3.48,30.31-5.46,45.59-7.45l25.6-3.32a14.94,14.94,0,0,0,5.29-1.37c4.69-2.57,5.13-9.61,2.22-14.09-1.39-2.15-3.36-3.91-4.53-6.19s-1.27-5.46.75-7c4.1-3.21,2.88-9.16,3.07-14.37q.82-21.82-.22-43.67a85.55,85.55,0,0,1-.14-9.06A80,80,0,0,1,323,115.57l7.78-30.63c-2-3.21-5.93-5.25-9.61-6.17s-7.53-1.2-11.16-2.33c-7.43-2.3-14.05-8.15-21.82-7.6a4,4,0,0,0-1.69.41c-1.75,1-1.47,3.52-1.59,5.53-.24,4.44-3.51,8.16-7.13,10.77s-7.73,4.5-11,7.47A5,5,0,0,0,264.77,96.8Z" transform="translate(0 0)"/><path class="cls-4" d="M162,125.85a31.64,31.64,0,0,1-5.46,2.81,17.9,17.9,0,0,0-5.22,2.53,8.23,8.23,0,0,0-1.82,2.25,10,10,0,0,0,9.21,14.87,20,20,0,0,0,6.8-2l18.29-7.93c3.1-1.34,6.44-2.91,7.91-5.95a1.41,1.41,0,0,0,.18-.94,1.54,1.54,0,0,0-.76-.79,40.9,40.9,0,0,1-10.65-10c-.75-1-1.66-3.42-2.72-4C173.9,114.36,165.12,123.84,162,125.85Z" transform="translate(0 0)"/><path class="cls-8" d="M138.84,148.5a24.71,24.71,0,0,1,24.71,24.71v41.62A1.16,1.16,0,0,1,162.4,216h-6.92V176.67h0A24.71,24.71,0,0,0,130.77,152H75.59V148.5Z" transform="translate(0 0)"/><path class="cls-9" d="M165.33,216.28H75.88V146.39h65.26a25.7,25.7,0,0,1,25.67,25.67V214.8A1.48,1.48,0,0,1,165.33,216.28Zm-88.85-.59h88.85a.89.89,0,0,0,.89-.89V172.06A25.11,25.11,0,0,0,141.14,147H76.48Z" transform="translate(0 0)"/><path class="cls-4" d="M357.55,119.35l6.74,7.7c1.45,1.65,2.9,3.31,4.21,5.06a59.27,59.27,0,0,1,7.73,14.55c1.46,3.85,2.68,8,2.17,12a29.38,29.38,0,0,1-1.69,6.12,75.86,75.86,0,0,1-4.58,11,62.62,62.62,0,0,1-5.16,7.73,180.41,180.41,0,0,1-17.09,19.55c-2.31,2.28-3.27,6-4.28,9.06-1.85,5.69-6.25,10.12-10.51,14.32a29.3,29.3,0,0,1-4.51,3.89,14.77,14.77,0,0,1-8.22,2.34,8.9,8.9,0,0,1-3.7-.77c-2.92-1.38-4.4-4.75-4.7-8a17,17,0,0,1,1.42-8.53c3.87-8.57,13.8-12.28,20.83-18.54,4.11-3.66,7.26-8.27,10.37-12.83a44.49,44.49,0,0,0,5.25-9.19c1.57-4.19,1-9.14,2.33-13.4.57-1.8,1.6-3.42,2.23-5.2s.78-3.9-.31-5.45a7.8,7.8,0,0,0-3.06-2.23c-4.48-2.28-9.51-5.21-10.37-10.17a10.91,10.91,0,0,1,2-7.76,32.45,32.45,0,0,1,5.66-5.93C352.28,123,355.58,121.08,357.55,119.35Z" transform="translate(0 0)"/><path class="cls-4" d="M157.69,136.6c-1.19-2.4-2.68-4.86-5.08-6a9.31,9.31,0,0,0-7.39,0,27.46,27.46,0,0,0-6.48,3.92l-5.81,4.28a14.19,14.19,0,0,0-3.46,3.19,13.48,13.48,0,0,0-1.79,4.93,35.24,35.24,0,0,0-.92,12.19c.93,6.56,4.88,12.28,9.23,17.27,2.72,3.12,6.07,6.26,10.2,6.4,1.79.05,3.77-.65,4.52-2.27a5.87,5.87,0,0,0,.4-2c.45-7.31-2.17-14.45-5.22-21.11a13.47,13.47,0,0,1-1.68-5.67,1.51,1.51,0,0,1,.25-1,1.62,1.62,0,0,1,1-.49c4.17-.82,11.36,2.42,14.29-2.21C161.64,145,159,139.33,157.69,136.6Z" transform="translate(0 0)"/><path class="cls-7" d="M188.52,100.63a10.53,10.53,0,0,0-2.72,2.52c-1,1.44-1.14,3.25-2,4.77-1.75,3.25-5.83,4.41-8.38,7.07a2.64,2.64,0,0,0-.81,1.38,3.07,3.07,0,0,0,.69,2l12.29,19.33c4.1.36,8-2.2,12.12-1.86,1.53.13,3.09.65,4.56.2a12.93,12.93,0,0,0,2.93-1.79c2.44-1.54,5.7-1.72,7.75-3.76s2.22-5,2.19-7.79a31.4,31.4,0,0,0-.73-7.17c-1.81-7.42-7.48-13.12-11-19.69-1.73-3.2-2.68-5.07-6.34-2.87S192,98.09,188.52,100.63Z" transform="translate(0 0)"/><path class="cls-7" d="M337.86,90.85A28.79,28.79,0,0,1,344,96.27c1.88,2.41,2.94,5.37,4.74,7.84s4.12,4.25,6.1,6.46c3,3.34,5,7.42,7,11.45A171.64,171.64,0,0,1,346,140a5.12,5.12,0,0,1-2.42,1.59,3.87,3.87,0,0,1-3.41-1.39c-.89-.93-1.52-2.07-2.36-3a12.19,12.19,0,0,0-7.52-3.64,51.57,51.57,0,0,0-8.52-.11,3.37,3.37,0,0,1-1.82-.31,3,3,0,0,1-1-1.14c-3.33-5.66-2.26-12.78-1.08-19.24l2.69-14.84a33.23,33.23,0,0,1,2.25-8.24c1-2.18,3.3-5.88,6.11-5.23S335.48,89.14,337.86,90.85Z" transform="translate(0 0)"/><g class="cls-10"><path class="cls-11" d="M267.65,39.55a12.58,12.58,0,0,0-.69,6.67,22.71,22.71,0,0,1-24.47-1.4,24.51,24.51,0,0,0-.42-5.27S272.57,27.15,267.65,39.55Z" transform="translate(0 0)"/></g><g class="cls-10"><path class="cls-12" d="M222.24,60.26s-1.58,9.24,2.17,11.48S222.24,60.26,222.24,60.26Z" transform="translate(0 0)"/></g><path class="cls-13" d="M211.73,64.11s5.26,7.48,5.77,11.37" transform="translate(0 0)"/><g class="cls-10"><path class="cls-14" d="M243.33,81.62q2.52,5.35,5.16,10.68a8.21,8.21,0,0,1-1.82.58c-3.12.59-6.61-.56-9.66-1.72-4.58-1.74-9.54-3.8-11.61-7.8-1.53-3-1.13-6.37-1.72-9.57-.49-2.77-1.77-5.41-2-8.21-.27-3.17.79-6.28,1.4-9.41.78-.3,1.54-.6,2.22-.9,3.35-1.41,10.88-.8,13.92-.47a9.82,9.82,0,0,0-.17,2,9.38,9.38,0,0,0,.27,2.11c.75,3.4,2.88,6.63,2.89,10.13,0,2.16-.81,4.29-.75,6.46A15.93,15.93,0,0,0,243.33,81.62Z" transform="translate(0 0)"/></g><g class="cls-10"><path class="cls-15" d="M299,80.87c-.85,2.55-2.89,11.82-2.89,11.82s-.19.8-.39,1.93c-.37-.44-.73-.89-1.09-1.34-.24-.3-.5-.6-.72-.89a9.24,9.24,0,0,0-2.65-2.23,5,5,0,0,0-2.49-.63,11.14,11.14,0,0,0-4,1.29c-5.13,2.26-12.26,2-15.64-2.06a9.33,9.33,0,0,1-2-5.61c5-12,2.19-29.81,2.19-29.81S285.14,59,295.3,64.71,299.86,78.32,299,80.87Z" transform="translate(0 0)"/></g><path class="cls-16" d="M247.49,18.61c-.63,1.72,0,3.57-.18,5.39-.45,4.24-5.26,7.19-6.35,11.34-.84,3.17.64,6.47.5,9.72-.19,3.67-2.49,7.11-2.43,10.79.06,4.21,3.15,8,3.17,12.24,0,2.17-.82,4.3-.75,6.47a16,16,0,0,0,1.91,6.16q2.52,5.36,5.16,10.68C245,93,240.7,91.65,237,90.26c-4.58-1.74-9.54-3.79-11.61-7.8-1.52-2.95-1.12-6.37-1.71-9.57-.5-2.76-1.78-5.41-2-8.21-.28-3.25.84-6.44,1.44-9.66A30.29,30.29,0,0,0,222,39.72c-1-2.87-2.41-5.64-3-8.59s-.35-6.26,1.76-8.6c2.3-2.55,6.19-3.47,9.08-5.5,3.07-2.16,4.82-5.46,5.94-8.79.94-2.82,1.79-6.1,4.72-7.52A8.57,8.57,0,0,1,244.31,0c4.47.09,8.63,2.35,13.12,2.6A49.25,49.25,0,0,0,265.08,2a31.32,31.32,0,0,1,18.3,3.34c5.37,3,9.32,8.1,9.89,13.68.34,3.35-.5,6.74-.14,10.08a15.37,15.37,0,0,0,5,9.59c1.77,1.63,3.95,2.94,5.32,4.85a12,12,0,0,1,1.88,5.14c2.19,13.69-6.41,27.25-5,41,.23,2.2,1,4.72,3.3,5.6-1.14,1.57-3.9,1.49-5.63.45s-2.78-2.76-4-4.24-3.05-2.89-5.15-2.84a10.78,10.78,0,0,0-4,1.3c-5.13,2.23-12.26,2-15.64-2.07-2.55-3.09-2.21-7.31-1.53-11.08s1.55-7.8-.19-11.31c-1.3-2.62-4-5-3.58-7.8.35-2.17,2.48-3.69,4.05-5.39a16.48,16.48,0,0,0,4-11.76c-.11-4.16-1.3-8.26-2.48-12.3-1-3.28-2-6.67-4.44-9.29a10.39,10.39,0,0,0-9.6-3.1c-1.49.24-2.9-.34-4.47.05A4.77,4.77,0,0,0,247.49,18.61Z" transform="translate(0 0)"/><g class="cls-10"><path class="cls-17" d="M293,26c.09-2.07.34-4.15.24-6.22C293.18,21.84,292.92,23.92,293,26Z" transform="translate(0 0)"/><path class="cls-18" d="M240.76,36.42a8.19,8.19,0,0,1,.2-1.08c1.09-4.15,5.9-7.1,6.35-11.34a12.15,12.15,0,0,0,0-2.09C246.73,26.07,242,29,241,33.08A9.64,9.64,0,0,0,240.76,36.42Z" transform="translate(0 0)"/><path class="cls-19" d="M223.58,48.45a30.3,30.3,0,0,0-1.64-11c-1-2.87-2.41-5.63-3-8.59a13.84,13.84,0,0,1-.24-1.57,12.6,12.6,0,0,0,.24,3.82c.63,2.95,2.06,5.72,3,8.59A30.08,30.08,0,0,1,223.58,48.45Z" transform="translate(0 0)"/><path class="cls-20" d="M241.49,73.16a43.58,43.58,0,0,0,.68-5.06A9.45,9.45,0,0,0,242.1,67a38.29,38.29,0,0,0-.68,5.29C241.45,72.59,241.45,72.87,241.49,73.16Z" transform="translate(0 0)"/><path class="cls-21" d="M239.08,54.59c.38-3.21,2.18-6.28,2.35-9.53a12.53,12.53,0,0,0,0-1.73C241,46.82,239,50.1,239,53.61A7.93,7.93,0,0,0,239.08,54.59Z" transform="translate(0 0)"/><path class="cls-22" d="M301.9,94.1a5.48,5.48,0,0,1-4-.63c-1.73-1.06-2.78-2.76-4-4.25s-3.05-2.88-5.15-2.83a11,11,0,0,0-4,1.29c-5.14,2.23-12.27,2-15.65-2.06a9.29,9.29,0,0,1-2-5.36c-.17,2.73.2,5.45,2,7.6,3.38,4.09,10.51,4.31,15.65,2.06a10.91,10.91,0,0,1,4-1.3c2.1-.05,3.89,1.34,5.15,2.84s2.31,3.19,4,4.24,4.47,1.14,5.63-.44A4.37,4.37,0,0,1,301.9,94.1Z" transform="translate(0 0)"/><path class="cls-23" d="M300.15,85.33c.37-11.09,5.83-22.08,5.47-33.12C305.24,63.24,299.78,74.23,300.15,85.33Z" transform="translate(0 0)"/><path class="cls-24" d="M268.4,69.2a11.32,11.32,0,0,0-1-6c-1-2-2.92-3.94-3.48-6a4,4,0,0,0-.11.47c-.46,2.83,2.28,5.18,3.59,7.81A9.89,9.89,0,0,1,268.4,69.2Z" transform="translate(0 0)"/><path class="cls-25" d="M237,88c-4.58-1.73-9.54-3.79-11.61-7.79-1.52-3-1.13-6.37-1.72-9.58-.49-2.74-1.75-5.36-2-8.15a13.35,13.35,0,0,0,0,2.19c.24,2.8,1.5,5.45,2,8.21.59,3.2.2,6.62,1.72,9.57,2.07,4,7,6.06,11.61,7.8,3.66,1.39,8,2.77,11.48,1.14l-.93-1.9C244.22,90.54,240.36,89.28,237,88Z" transform="translate(0 0)"/><path class="cls-26" d="M264.94,18.93c2.44,2.62,3.48,6,4.44,9.29A50.73,50.73,0,0,1,271.87,40q0-.85,0-1.71c-.1-4.17-1.3-8.26-2.49-12.3-1-3.28-2-6.67-4.44-9.29a10.38,10.38,0,0,0-9.59-3.1c-1.49.24-2.9-.34-4.47.05a4.74,4.74,0,0,0-3.4,2.72,7.35,7.35,0,0,0-.23,3.16,4.57,4.57,0,0,1,.23-.9,4.74,4.74,0,0,1,3.4-2.72c1.55-.39,3,.19,4.47-.05A10.39,10.39,0,0,1,264.94,18.93Z" transform="translate(0 0)"/></g><g class="cls-10"><path class="cls-27" d="M252.38,81.92s-.65,6.73-1,8.83S253.56,82.54,252.38,81.92Z" transform="translate(0 0)"/></g><path class="cls-5" d="M223,61s-1.54,9.19,2.13,11.42S223,61,223,61Z" transform="translate(0 0)"/><path class="cls-5" d="M243.61,82.25q2.46,5.35,5,10.63a7.26,7.26,0,0,1-1.78.57c-3.05.59-6.46-.55-9.44-1.71C233,90,228.1,88,226.08,84c-1.49-2.94-1.1-6.34-1.68-9.53-.5-2.75-1.74-5.38-2-8.16-.26-3.16.77-6.26,1.36-9.38.77-.3,1.49-.6,2.18-.9,3.27-1.41,10.64-.79,13.59-.47a9.72,9.72,0,0,0-.17,1.94,9.89,9.89,0,0,0,.26,2.1c.74,3.39,2.82,6.6,2.83,10.08,0,2.15-.8,4.27-.74,6.43A16.41,16.41,0,0,0,243.61,82.25Z" transform="translate(0 0)"/><path class="cls-5" d="M298.05,81.51c-.83,2.53-2.82,11.76-2.82,11.76s-.19.79-.38,1.92c-.37-.45-.72-.89-1.07-1.34-.23-.3-.47-.6-.71-.89a9.08,9.08,0,0,0-2.59-2.21,5,5,0,0,0-2.44-.62,10.64,10.64,0,0,0-3.89,1.29c-5,2.23-12,2-15.3-2a9.39,9.39,0,0,1-2-5.59c4.84-11.91,2.15-29.66,2.15-29.66s15.41,5.66,25.35,11.32S298.88,79,298.05,81.51Z" transform="translate(0 0)"/><path class="cls-2" d="M247.67,19.56c-.61,1.71,0,3.57-.17,5.36-.44,4.21-5.15,7.14-6.21,11.28-.82,3.16.62,6.44.46,9.68-.19,3.65-2.42,7.07-2.37,10.72.06,4.18,3.08,8,3.09,12.17,0,2.16-.8,4.28-.73,6.44a16.11,16.11,0,0,0,1.87,6.12q2.46,5.37,5,10.63c-3.48,1.62-7.64.25-11.23-1.13-4.47-1.73-9.33-3.78-11.35-7.76-1.49-2.94-1.09-6.34-1.68-9.52-.49-2.75-1.73-5.39-2-8.17-.27-3.23.82-6.41,1.4-9.61a30.53,30.53,0,0,0-1.12-15.22c-1-2.86-2.35-5.61-3-8.55s-.35-6.21,1.72-8.55c2.24-2.54,6.06-3.46,8.88-5.48,3-2.14,4.72-5.43,5.81-8.74.92-2.81,1.75-6.07,4.61-7.48A8.24,8.24,0,0,1,244.5,1c4.4.1,8.45,2.34,12.84,2.58A45.68,45.68,0,0,0,264.79,3a30.26,30.26,0,0,1,17.9,3.32c5.26,3,9.12,8.07,9.68,13.62.33,3.33-.5,6.7-.14,10a15.41,15.41,0,0,0,4.89,9.56c1.73,1.61,3.87,2.92,5.2,4.81a12,12,0,0,1,1.84,5.12c2.14,13.62-6.27,27.13-4.86,40.82.22,2.2,1,4.7,3.22,5.58-1.12,1.55-3.82,1.48-5.51.45s-2.71-2.75-3.94-4.23-3-2.87-5-2.82a10.7,10.7,0,0,0-3.89,1.29c-5,2.23-12,2-15.29-2.05-2.49-3.08-2.17-7.27-1.49-11s1.52-7.76-.18-11.25c-1.28-2.61-4-4.95-3.51-7.76.34-2.16,2.43-3.68,4-5.36a16.64,16.64,0,0,0,3.91-11.69c-.1-4.16-1.28-8.23-2.45-12.25-1-3.26-2-6.64-4.34-9.24a10.08,10.08,0,0,0-9.38-3.09c-1.46.24-2.84-.33-4.36.05A4.7,4.7,0,0,0,247.67,19.56Z" transform="translate(0 0)"/><g class="cls-10"><path d="M292.2,26.91c.09-2.07.34-4.14.23-6.2C292.35,22.78,292.09,24.85,292.2,26.91Z" transform="translate(0 0)"/><path d="M241.09,37.29a6.43,6.43,0,0,1,.2-1.08c1.06-4.13,5.77-7.07,6.21-11.29a14.44,14.44,0,0,0,0-2.08C247,27,242.36,29.9,241.31,34A9.77,9.77,0,0,0,241.09,37.29Z" transform="translate(0 0)"/><path d="M224.29,49.25a30.59,30.59,0,0,0-1.59-10.92c-1-2.86-2.36-5.61-3-8.55a13.84,13.84,0,0,1-.24-1.57,12.86,12.86,0,0,0,.24,3.81c.61,2.93,2,5.69,3,8.54A30.91,30.91,0,0,1,224.29,49.25Z" transform="translate(0 0)"/><path d="M241.81,73.82a45,45,0,0,0,.66-5,7.55,7.55,0,0,0-.07-1.06,37.62,37.62,0,0,0-.66,5.26A7.53,7.53,0,0,0,241.81,73.82Z" transform="translate(0 0)"/><path d="M239.46,55.36c.37-3.19,2.13-6.25,2.29-9.48a11,11,0,0,0,0-1.72c-.35,3.47-2.37,6.74-2.32,10.23A7.91,7.91,0,0,0,239.46,55.36Z" transform="translate(0 0)"/><path d="M300.89,94.67A5.22,5.22,0,0,1,297,94c-1.7-1.05-2.72-2.75-3.95-4.22s-3-2.88-5-2.82a10.44,10.44,0,0,0-3.89,1.28c-5,2.24-12,2-15.3-2a9.24,9.24,0,0,1-1.93-5.33c-.17,2.71.19,5.41,1.93,7.57,3.3,4.08,10.28,4.29,15.3,2A10.4,10.4,0,0,1,288,89.23c2,0,3.79,1.34,5,2.82s2.25,3.18,3.95,4.23,4.39,1.12,5.51-.45A4,4,0,0,1,300.89,94.67Z" transform="translate(0 0)"/><path d="M299.17,85.94c.35-11,5.7-22,5.32-32.94C304.14,64,298.8,74.9,299.17,85.94Z" transform="translate(0 0)"/><path d="M268.13,69.89a11.58,11.58,0,0,0-1-5.93c-1-2-2.86-3.92-3.4-6,0,.16-.08.31-.11.45-.45,2.81,2.23,5.15,3.51,7.76A10.14,10.14,0,0,1,268.13,69.89Z" transform="translate(0 0)"/><path d="M237.42,88.61c-4.47-1.72-9.33-3.77-11.35-7.75-1.49-2.94-1.09-6.34-1.68-9.52-.49-2.74-1.71-5.36-1.95-8.12a13.22,13.22,0,0,0,0,2.18c.23,2.78,1.49,5.42,2,8.17.59,3.19.2,6.58,1.68,9.52,2,4,6.88,6,11.35,7.76,3.59,1.38,7.77,2.75,11.23,1.14-.3-.63-.6-1.26-.91-1.89C244.48,91.13,240.7,89.88,237.42,88.61Z" transform="translate(0 0)"/><path d="M264.74,19.88c2.38,2.61,3.39,6,4.34,9.25a50.43,50.43,0,0,1,2.42,11.7c0-.56,0-1.13,0-1.69-.1-4.16-1.28-8.23-2.45-12.25-.95-3.26-2-6.64-4.34-9.24a10.08,10.08,0,0,0-9.38-3.09c-1.46.24-2.84-.33-4.36.06a4.68,4.68,0,0,0-3.33,2.7,7.53,7.53,0,0,0-.21,3.13,4.6,4.6,0,0,1,.21-.89A4.69,4.69,0,0,1,251,16.85c1.52-.39,2.9.18,4.36-.05A10,10,0,0,1,264.74,19.88Z" transform="translate(0 0)"/></g><circle class="cls-8" cx="110.54" cy="180.15" r="9.18"/><path class="cls-9" d="M125.28,515.42H111.93c-.77,0-1.39-3.31-1.39-7.4V215.84h16.14V508C126.68,512.11,126.05,515.42,125.28,515.42Z" transform="translate(0 0)"/><path class="cls-28" d="M105.21,179.56v-54.5a1.48,1.48,0,0,1,1.48-1.48h30.8a1.48,1.48,0,0,1,1.48,1.48V139a1.49,1.49,0,0,1-1.48,1.49H116.76a.88.88,0,0,0-.89.88v38.21a5.33,5.33,0,1,1-10.66,0Z" transform="translate(0 0)"/><path class="cls-9" d="M90.4,162.61v53.67h-72a5,5,0,0,1,5-5H56.63V162.61A16.84,16.84,0,0,1,73.52,145.8h0A16.84,16.84,0,0,1,90.4,162.61Z" transform="translate(0 0)"/><path class="cls-29" d="M77.44,172.7a.19.19,0,0,0,0-.13l-7.18-10L51.19,136a1.1,1.1,0,0,0-1.38-.33L10.28,156.13a.86.86,0,0,0-.39.06,1.07,1.07,0,0,0-.7.76l-3.5,14.44L74.07,188l3.5-14.44A1.09,1.09,0,0,0,77.44,172.7Z" transform="translate(0 0)"/><path class="cls-9" d="M77.42,172.57l-7.18-10L51.19,136a1.1,1.1,0,0,0-1.38-.33L10.28,156.13l0,0h0a.16.16,0,0,0-.06.21.13.13,0,0,0,.08.07h.13l.35-.19L50,135.94a.76.76,0,0,1,1,.23L70,162.73l6.79,9.47.37.52,0,0a.16.16,0,0,0,.08.06.14.14,0,0,0,.13,0,.11.11,0,0,0,.06-.09A.19.19,0,0,0,77.42,172.57Z" transform="translate(0 0)"/><path class="cls-30" d="M58.07,172.72l-.13-1.19-.45-4.1-1-8.82-1.09-9.85-2-17.78A1.32,1.32,0,0,0,52,129.81l-37.27,4.13a1.33,1.33,0,0,0-1.17,1.46l2.8,25.2,0,.43,7.86,6.14,2.2,1.72.36.28,9.35,7.3.44-.05,7.49-.83,11.29-1.25,1.53-.17A1.31,1.31,0,0,0,58.07,172.72Z" transform="translate(0 0)"/><path class="cls-29" d="M48.37,149.94a1.93,1.93,0,0,0-2.13-1.72l-14.75,1.64-7.13.79h0a1.94,1.94,0,0,0,.43,3.85l5.73-.64,16.14-1.79A1.92,1.92,0,0,0,48.37,149.94Z" transform="translate(0 0)"/><path class="cls-29" d="M47.58,159.22a1.94,1.94,0,0,0-.55-3.83l-2.5.27-14.85,1.65-4.52.5h0a1.94,1.94,0,0,0,.42,3.85l3.13-.35,18.75-2.07.12,0Z" transform="translate(0 0)"/><path class="cls-29" d="M49.7,165.55a1.9,1.9,0,0,0,.27-1.21,1.94,1.94,0,0,0-2.14-1.72l-7,.78-5.43.6-7.54.84-1.9.21a1.93,1.93,0,0,0-1.71,1.72,1.34,1.34,0,0,0,0,.4l2.2,1.72.44,0h0l13.69-1.51,7.68-.85a1.93,1.93,0,0,0,1.44-.93Z" transform="translate(0 0)"/><path class="cls-29" d="M38.91,143.34h0a1.94,1.94,0,1,0-.42-3.85l-8.47.94h0a1.94,1.94,0,1,0,.42,3.85l2.68-.29,1.78-.2,4-.45Z" transform="translate(0 0)"/><path class="cls-7" d="M70.79,152.48l-36.45-8.82a1.32,1.32,0,0,0-1.59,1l-5.94,24.54,9.35,7.3,1.31,1,2.08,1.62a1.1,1.1,0,0,0,.87.21l2.6-.49,8.11-1.54,7.56-1.44,8.18-1.56,4.89-20.23A1.31,1.31,0,0,0,70.79,152.48Z" transform="translate(0 0)"/><path class="cls-29" d="M59.11,167.83l-21.39-5.18A1.93,1.93,0,0,0,35.4,164a.24.24,0,0,0,0,.08,1.94,1.94,0,0,0,1.43,2.33l21.38,5.18a1.94,1.94,0,0,0,.92-3.76Z" transform="translate(0 0)"/><path class="cls-29" d="M58.52,175.57a1.94,1.94,0,0,0-1.11-.74L36,169.65a1.94,1.94,0,0,0-.91,3.77l16,3.88,7.56-1.44A2.75,2.75,0,0,0,58.52,175.57Z" transform="translate(0 0)"/><path class="cls-29" d="M37.47,177.5l2.08,1.62a1.1,1.1,0,0,0,.87.21l2.6-.49Z" transform="translate(0 0)"/><path class="cls-29" d="M56.22,159.32A1.93,1.93,0,0,0,54.8,157l-8.29-2a1.93,1.93,0,0,0-2,.69,2,2,0,0,0-.36.74,2,2,0,0,0,1.43,2.34l8.28,2a1.94,1.94,0,0,0,2.34-1.42Z" transform="translate(0 0)"/><path class="cls-29" d="M50.4,177.12l-8.12,1.54-1.91.37a.83.83,0,0,1-.63-.15l-1.54-1.21-.73-.17,2.08,1.62a1.1,1.1,0,0,0,.87.21l2.6-.49,8.11-1.54Zm-23.95-8.23.36.28.08-.33Zm24,8.23-8.12,1.54-1.91.37a.83.83,0,0,1-.63-.15l-1.54-1.21-.73-.17,2.08,1.62a1.1,1.1,0,0,0,.87.21l2.6-.49,8.11-1.54Zm0,0-8.12,1.54-1.91.37a.83.83,0,0,1-.63-.15l-1.54-1.21-.73-.17,2.08,1.62a1.1,1.1,0,0,0,.87.21l2.6-.49,8.11-1.54Zm27.17-3.61a1.09,1.09,0,0,0-.13-.81.94.94,0,0,0-.14-.19,1.07,1.07,0,0,0-.53-.31,1,1,0,0,0-.46,0l-17.79,3.38-8.12,1.55-8.12,1.54-1.91.37a.83.83,0,0,1-.63-.15l-1.54-1.21-1.6-1.25-9.71-7.58h0l-2.64-2.07-7.9-6.17-5.44-4.24a1.88,1.88,0,0,0-.18-.12,1,1,0,0,0-.45-.11.86.86,0,0,0-.39.06,1.07,1.07,0,0,0-.7.76L0,194.78a1.09,1.09,0,0,0,.8,1.31l66.27,16a1.09,1.09,0,0,0,1.31-.8l9.16-37.82ZM50.4,177.12l-8.12,1.54-1.91.37a.83.83,0,0,1-.63-.15l-1.54-1.21-.73-.17,2.08,1.62a1.1,1.1,0,0,0,.87.21l2.6-.49,8.11-1.54Zm0,0-8.12,1.54-1.91.37a.83.83,0,0,1-.63-.15l-1.54-1.21-.73-.17,2.08,1.62a1.1,1.1,0,0,0,.87.21l2.6-.49,8.11-1.54Zm0,0-8.12,1.54-1.91.37a.83.83,0,0,1-.63-.15l-1.54-1.21-.73-.17,2.08,1.62a1.1,1.1,0,0,0,.87.21l2.6-.49,8.11-1.54Z" transform="translate(0 0)"/><path class="cls-9" d="M50.4,177.12l-8.12,1.54-1.91.37a.83.83,0,0,1-.63-.15l-1.54-1.21-.73-.17,2.08,1.62a1.1,1.1,0,0,0,.87.21l2.6-.49,8.11-1.54Zm-23.95-8.23.36.28.08-.33Zm24,8.23-8.12,1.54-1.91.37a.83.83,0,0,1-.63-.15l-1.54-1.21-.73-.17,2.08,1.62a1.1,1.1,0,0,0,.87.21l2.6-.49,8.11-1.54Zm0,0-8.12,1.54-1.91.37a.83.83,0,0,1-.63-.15l-1.54-1.21-.73-.17,2.08,1.62a1.1,1.1,0,0,0,.87.21l2.6-.49,8.11-1.54Zm26.37-4.92a1,1,0,0,0-.46,0l-17.79,3.38-8.12,1.55-8.12,1.54-1.91.37a.83.83,0,0,1-.63-.15l-1.54-1.21-.73-.17,2.08,1.62a1.1,1.1,0,0,0,.87.21l2.6-.49,8.11-1.54,7.56-1.45,17.68-3.36a.76.76,0,0,1,.7.23l0,0,0,0Zm.8,1.31a1.09,1.09,0,0,0-.13-.81.94.94,0,0,0-.14-.19,1.07,1.07,0,0,0-.53-.31,1,1,0,0,0-.46,0l-17.79,3.38-8.12,1.55-8.12,1.54-1.91.37a.83.83,0,0,1-.63-.15l-1.54-1.21-1.6-1.25-9.71-7.58h0l-2.64-2.07-7.9-6.17-5.44-4.24a1.88,1.88,0,0,0-.18-.12,1,1,0,0,0-.45-.11.86.86,0,0,0-.39.06,1.07,1.07,0,0,0-.7.76L0,194.78a1.09,1.09,0,0,0,.8,1.31l66.27,16a1.09,1.09,0,0,0,1.31-.8l9.16-37.82Zm-9.46,37.75a.77.77,0,0,1-.94.57L.9,195.79h0a.77.77,0,0,1-.57-.94L9.49,157a.77.77,0,0,1,.5-.55.75.75,0,0,1,.26,0h.08l.09,0a.69.69,0,0,1,.3.14L16.39,161l7.86,6.14,2.2,1.72.36.28,9.35,7.3,1.31,1,2.08,1.62a1.1,1.1,0,0,0,.87.21l2.6-.49,8.11-1.54,7.56-1.45,17.68-3.36a.76.76,0,0,1,.7.23l0,0,0,0a.75.75,0,0,1,.13.65ZM50.4,177.12l-8.12,1.54-1.91.37a.83.83,0,0,1-.63-.15l-1.54-1.21-.73-.17,2.08,1.62a1.1,1.1,0,0,0,.87.21l2.6-.49,8.11-1.54Zm0,0-8.12,1.54-1.91.37a.83.83,0,0,1-.63-.15l-1.54-1.21-.73-.17,2.08,1.62a1.1,1.1,0,0,0,.87.21l2.6-.49,8.11-1.54Zm0,0-8.12,1.54-1.91.37a.83.83,0,0,1-.63-.15l-1.54-1.21-.73-.17,2.08,1.62a1.1,1.1,0,0,0,.87.21l2.6-.49,8.11-1.54Z" transform="translate(0 0)"/><path class="cls-28" d="M152,188.66a2.42,2.42,0,0,1,1.77-2.91l8.36-2a2.4,2.4,0,0,1,1.13,4.67l-8.36,2A2.4,2.4,0,0,1,152,188.66Z" transform="translate(0 0)"/><circle class="cls-29" cx="110.54" cy="179.56" r="2.07"/></svg>