<?xml version="1.0" encoding="utf-8"?>
<!-- Generator: Adobe Illustrator 24.3.0, SVG Export Plug-In . SVG Version: 6.00 Build 0)  -->
<svg version="1.1" id="e189b3b9-b88e-4ad6-86fc-a3cf637fca9f"
	 xmlns="http://www.w3.org/2000/svg" xmlns:xlink="http://www.w3.org/1999/xlink" x="0px" y="0px" viewBox="0 0 408.4 441.7"
	 style="enable-background:new 0 0 408.4 441.7;" xml:space="preserve">
<style type="text/css">
	.st0{fill:#FFB9B9;}
	.st1{fill:#2F2E41;}
	.st2{opacity:0.1;enable-background:new    ;}
	.st3{fill:#07691C;}
	.st4{fill:#F2DA91;}
	.st5{fill:#FFE8DC;}
	.st6{fill:#3F3D56;}
</style>
<polygon class="st0" points="77.6,382.3 52.8,380.6 61,417.9 89.2,406.3 "/>
<polygon class="st1" points="305.1,312.8 247.2,256.5 214.1,282.2 148.7,360.8 156.2,372.4 235.6,318.6 289.4,388.9 340.7,363.3 "/>
<polygon class="st2" points="305.1,312.8 247.2,256.5 214.1,282.2 148.7,360.8 156.2,372.4 235.6,318.6 289.4,388.9 340.7,363.3 "/>
<path class="st0" d="M310.1,350l-7.4,5.8l-60.4-20.7l-14.1-5.8l-28.2,5.8c0,0,0-23.2,26.5-22.3l27.3,6.6l32.3,2.5L310.1,350z"/>
<polygon class="st1" points="363.8,411.3 345.6,422.8 324.1,422.8 224,385.6 77.6,412.1 73.4,380.6 207.5,321.9 325,360.8 "/>
<path class="st0" d="M246.4,264l-12.4,2.5l-2.7-3.1c-4.4-5.1-5.3-12.3-2.3-18.3l0,0l34.7-45.5c0,0,9.9-22.3,25.6-13.2
	s-13.2,24-13.2,24l-17.4,27.3l1.7,14.1L246.4,264z"/>
<circle class="st0" cx="325" cy="177.9" r="32.3"/>
<path class="st0" d="M310.5,201.5l14.9,35.6l35.6-14.9c0,0-11.6-28.1-11.6-29S310.5,201.5,310.5,201.5z"/>
<path class="st3" d="M408.4,306.8c0,19.5-3.1,38.8-9.1,57.3l-2.4,7.4l-11.6,53l-12.4,3.3l-9.1-11.6L345.6,403l-13.2-21.5L321,362.5
	l-3.5-5.9l-12.4-62l-47.2-26.5l-15.7-2.5l3.3-9.1l14.1-19l14.1-1.6l4.1-3.3l3.3,1.7l13.2-7.4l4.1,1.6l24.2,2.3l14.7-3.1l21.1-11.4
	l8.7,1.4l29.8,24.8C404.5,263.1,408.4,284.9,408.4,306.8z"/>
<path class="st1" d="M60.4,395.1c0,0,7.4-12.5,4.3-14s-16.4-7.3-16.4-7.3l-19.5-6.5c0,0-28.1-41.8-28.8-5.5S20.5,407,20.5,407
	s18.8,40.4,29.5,34s21.3-28.4,21.3-28.4S52.1,402.3,60.4,395.1z"/>
<polygon class="st2" points="399.4,299.6 368,320.3 321,362.5 317.5,356.6 307.6,307 310.1,307 335.7,259.9 "/>
<polygon class="st3" points="335.7,254.9 310.1,302 301,302 295.2,318.6 281.9,321.9 317.5,360.8 368,315.3 399.4,294.6 "/>
<path class="st4" d="M299.9,154l-3.5,1.3c-2.2-1.5-2.8-4.5-1.3-6.8c0,0,0,0,0,0l0.1-0.1l-6.5-0.3c16.2-21.5,46.8-25.9,68.3-9.7
	c0,0,0,0,0,0c1.6,1.2,3.1,2.5,4.5,3.9c0.3-1,3.5,1,4.8,3c0.4-1.6,3.5,6.3,4.5,12c0.5-1.9,2.4,1.1,0.7,4.1c1-0.2,1.5,2.5,0.7,4
	c1.1-0.5,1,2.7-0.3,4.8c1.6-0.1-12.9,22.5-18.8,35.7c-1.7-7.9-3.6-16.2-9.2-22c-0.9-1-2-1.9-3-2.8l-5.6-5.1
	c-6.5-5.7-12.3-12.7-20.9-14.9c-5.9-1.5-9.6-1.8-6.4-8.5c-2.9,1.2-5.6,3-8.6,4.1C299.6,155.9,299.8,154.9,299.9,154z"/>
<circle class="st0" cx="341.1" cy="181.7" r="5.8"/>
<rect x="178.4" y="51.5" class="st5" width="28" height="28"/>
<path class="st6" d="M223.4,63.5h-34v-34h34V63.5z M190.9,62h31V31h-31V62z"/>
<rect x="50" y="141.4" transform="matrix(0.9615 -0.2746 0.2746 0.9615 -40.2022 23.5592)" class="st5" width="28" height="28"/>
<path class="st6" d="M74.5,184.6l-9.3-32.7l32.7-9.3l9.3,32.7L74.5,184.6z M67,152.9l8.5,29.9l29.8-8.5l-8.6-29.9L67,152.9z"/>
<rect x="59.7" y="5.8" transform="matrix(0.6828 -0.7306 0.7306 0.6828 8.9254 60.1294)" class="st3" width="28" height="28"/>
<path class="st6" d="M54,43.8L77.2,19l24.8,23.2L78.8,67L54,43.8z M77.3,21L56.1,43.7l22.7,21.2L100,42.2L77.3,21z"/>
<circle class="st4" cx="366.7" cy="138.1" r="9.4"/>
<path class="st4" d="M320.7,178.1"/>
<path class="st4" d="M315.2,193.5c-1.7,0.5-3.6,1-4.3,2.1c-0.3,0.4-0.3,0.8-0.6,1.3c-1.1,1.8-5.4,2.2-7.6,3.6
	c-0.9,0.6-1.6,1.5-2,2.5c-1.5,3.6-1,7.7,1.4,10.8c0.8,1.2,1.9,2.2,3.1,2.9c4,2.3,10.8,2.3,15.8,0.7c4.3-1.4,8.1-3.9,11.3-7.1
	c1.5-1.3,2.8-2.8,3.9-4.4c0.9-1.5,1.5-3.1,1.9-4.9c1.7-6.4,4-13.5,3.2-20c-2.4-0.1-6.8-0.2-8.9,0.7c-2.6,1-1.9,3.2-2.8,4.7
	C327.3,190,320.9,191.9,315.2,193.5z"/>
<path class="st4" d="M313.6,207.4c-3.8,0.2-10.5-3.9-14.2-3.7c-2.6-4.5-4.8-9.1-6.8-13.9c2-2.9,5.2-3.6,10.1,0
	C306.6,192.6,312,202.1,313.6,207.4z"/>
</svg>
